<mxfile host="app.diagrams.net" agent="Mozilla/5.0 (Macintosh; Intel Mac OS X 10_15_7) AppleWebKit/537.36 (KHTML, like Gecko) Chrome/133.0.0.0 Safari/537.36" version="26.0.15">
  <diagram name="Page-1" id="I1XqWT96qVhNLrMKlE-t">
    <mxGraphModel dx="1834" dy="625" grid="1" gridSize="10" guides="1" tooltips="1" connect="1" arrows="1" fold="1" page="1" pageScale="1" pageWidth="850" pageHeight="1100" math="0" shadow="0">
      <root>
        <mxCell id="0" />
        <mxCell id="1" parent="0" />
        <object label="AWS Cloud" id="lfcw_otKHLyRdPGNzwIy-1">
          <mxCell style="points=[[0,0],[0.25,0],[0.5,0],[0.75,0],[1,0],[1,0.25],[1,0.5],[1,0.75],[1,1],[0.75,1],[0.5,1],[0.25,1],[0,1],[0,0.75],[0,0.5],[0,0.25]];outlineConnect=0;gradientColor=none;html=1;whiteSpace=wrap;fontSize=12;fontStyle=0;container=1;pointerEvents=0;collapsible=0;recursiveResize=0;shape=mxgraph.aws4.group;grIcon=mxgraph.aws4.group_aws_cloud;strokeColor=#232F3E;fillColor=none;verticalAlign=top;align=left;spacingLeft=30;fontColor=#232F3E;dashed=0;strokeWidth=2;" vertex="1" parent="1">
            <mxGeometry x="-10" y="130" width="710" height="610" as="geometry" />
          </mxCell>
        </object>
        <mxCell id="lfcw_otKHLyRdPGNzwIy-2" value="Region" style="points=[[0,0],[0.25,0],[0.5,0],[0.75,0],[1,0],[1,0.25],[1,0.5],[1,0.75],[1,1],[0.75,1],[0.5,1],[0.25,1],[0,1],[0,0.75],[0,0.5],[0,0.25]];outlineConnect=0;gradientColor=none;html=1;whiteSpace=wrap;fontSize=12;fontStyle=0;container=1;pointerEvents=0;collapsible=0;recursiveResize=0;shape=mxgraph.aws4.group;grIcon=mxgraph.aws4.group_region;strokeColor=#00A4A6;fillColor=none;verticalAlign=top;align=left;spacingLeft=30;fontColor=#147EBA;dashed=1;strokeWidth=2;" vertex="1" parent="lfcw_otKHLyRdPGNzwIy-1">
          <mxGeometry x="10" y="30" width="680" height="560" as="geometry" />
        </mxCell>
        <mxCell id="lfcw_otKHLyRdPGNzwIy-3" value="VPC" style="points=[[0,0],[0.25,0],[0.5,0],[0.75,0],[1,0],[1,0.25],[1,0.5],[1,0.75],[1,1],[0.75,1],[0.5,1],[0.25,1],[0,1],[0,0.75],[0,0.5],[0,0.25]];outlineConnect=0;gradientColor=none;html=1;whiteSpace=wrap;fontSize=12;fontStyle=0;container=1;pointerEvents=0;collapsible=0;recursiveResize=0;shape=mxgraph.aws4.group;grIcon=mxgraph.aws4.group_vpc2;strokeColor=#8C4FFF;fillColor=none;verticalAlign=top;align=left;spacingLeft=30;fontColor=#AAB7B8;dashed=0;strokeWidth=2;" vertex="1" parent="lfcw_otKHLyRdPGNzwIy-2">
          <mxGeometry x="10" y="60" width="660" height="480" as="geometry" />
        </mxCell>
        <mxCell id="lfcw_otKHLyRdPGNzwIy-6" value="Availability Zone A" style="fillColor=none;strokeColor=#147EBA;dashed=1;verticalAlign=top;fontStyle=0;fontColor=#147EBA;whiteSpace=wrap;html=1;perimeterSpacing=0;strokeWidth=2;" vertex="1" parent="lfcw_otKHLyRdPGNzwIy-3">
          <mxGeometry x="30" y="-30" width="260" height="480" as="geometry" />
        </mxCell>
        <mxCell id="lfcw_otKHLyRdPGNzwIy-9" value="Availability Zone B" style="fillColor=none;strokeColor=#147EBA;dashed=1;verticalAlign=top;fontStyle=0;fontColor=#147EBA;whiteSpace=wrap;html=1;strokeWidth=2;" vertex="1" parent="lfcw_otKHLyRdPGNzwIy-3">
          <mxGeometry x="370" y="-30" width="270" height="480" as="geometry" />
        </mxCell>
        <mxCell id="lfcw_otKHLyRdPGNzwIy-13" value="Public subnet" style="points=[[0,0],[0.25,0],[0.5,0],[0.75,0],[1,0],[1,0.25],[1,0.5],[1,0.75],[1,1],[0.75,1],[0.5,1],[0.25,1],[0,1],[0,0.75],[0,0.5],[0,0.25]];outlineConnect=0;gradientColor=none;html=1;whiteSpace=wrap;fontSize=12;fontStyle=0;container=1;pointerEvents=0;collapsible=0;recursiveResize=0;shape=mxgraph.aws4.group;grIcon=mxgraph.aws4.group_security_group;grStroke=0;strokeColor=#7AA116;fillColor=#F2F6E8;verticalAlign=top;align=left;spacingLeft=30;fontColor=#248814;dashed=0;" vertex="1" parent="lfcw_otKHLyRdPGNzwIy-3">
          <mxGeometry x="40" y="40" width="240" height="130" as="geometry" />
        </mxCell>
        <mxCell id="lfcw_otKHLyRdPGNzwIy-12" value="Public subnet" style="points=[[0,0],[0.25,0],[0.5,0],[0.75,0],[1,0],[1,0.25],[1,0.5],[1,0.75],[1,1],[0.75,1],[0.5,1],[0.25,1],[0,1],[0,0.75],[0,0.5],[0,0.25]];outlineConnect=0;gradientColor=none;html=1;whiteSpace=wrap;fontSize=12;fontStyle=0;container=1;pointerEvents=0;collapsible=0;recursiveResize=0;shape=mxgraph.aws4.group;grIcon=mxgraph.aws4.group_security_group;grStroke=0;strokeColor=#7AA116;fillColor=#F2F6E8;verticalAlign=top;align=left;spacingLeft=30;fontColor=#248814;dashed=0;" vertex="1" parent="lfcw_otKHLyRdPGNzwIy-3">
          <mxGeometry x="390" y="40" width="230" height="130" as="geometry" />
        </mxCell>
        <mxCell id="lfcw_otKHLyRdPGNzwIy-14" value="Private subnet" style="points=[[0,0],[0.25,0],[0.5,0],[0.75,0],[1,0],[1,0.25],[1,0.5],[1,0.75],[1,1],[0.75,1],[0.5,1],[0.25,1],[0,1],[0,0.75],[0,0.5],[0,0.25]];outlineConnect=0;gradientColor=none;html=1;whiteSpace=wrap;fontSize=12;fontStyle=0;container=1;pointerEvents=0;collapsible=0;recursiveResize=0;shape=mxgraph.aws4.group;grIcon=mxgraph.aws4.group_security_group;grStroke=0;strokeColor=#00A4A6;fillColor=#E6F6F7;verticalAlign=top;align=left;spacingLeft=30;fontColor=#147EBA;dashed=0;" vertex="1" parent="lfcw_otKHLyRdPGNzwIy-3">
          <mxGeometry x="40" y="200" width="240" height="230" as="geometry" />
        </mxCell>
        <mxCell id="lfcw_otKHLyRdPGNzwIy-16" value="Private subnet" style="points=[[0,0],[0.25,0],[0.5,0],[0.75,0],[1,0],[1,0.25],[1,0.5],[1,0.75],[1,1],[0.75,1],[0.5,1],[0.25,1],[0,1],[0,0.75],[0,0.5],[0,0.25]];outlineConnect=0;gradientColor=none;html=1;whiteSpace=wrap;fontSize=12;fontStyle=0;container=1;pointerEvents=0;collapsible=0;recursiveResize=0;shape=mxgraph.aws4.group;grIcon=mxgraph.aws4.group_security_group;grStroke=0;strokeColor=#00A4A6;fillColor=#E6F6F7;verticalAlign=top;align=left;spacingLeft=30;fontColor=#147EBA;dashed=0;" vertex="1" parent="lfcw_otKHLyRdPGNzwIy-3">
          <mxGeometry x="390" y="200" width="230" height="230" as="geometry" />
        </mxCell>
        <mxCell id="lfcw_otKHLyRdPGNzwIy-41" style="edgeStyle=orthogonalEdgeStyle;rounded=0;orthogonalLoop=1;jettySize=auto;html=1;exitX=0.5;exitY=0.94;exitDx=0;exitDy=0;exitPerimeter=0;" edge="1" parent="lfcw_otKHLyRdPGNzwIy-3" source="lfcw_otKHLyRdPGNzwIy-19" target="lfcw_otKHLyRdPGNzwIy-24">
          <mxGeometry relative="1" as="geometry">
            <Array as="points">
              <mxPoint x="103" y="360" />
            </Array>
          </mxGeometry>
        </mxCell>
        <mxCell id="lfcw_otKHLyRdPGNzwIy-19" value="" style="fontColor=#0066CC;verticalAlign=top;verticalLabelPosition=bottom;labelPosition=center;align=center;html=1;outlineConnect=0;fillColor=#CCCCCC;strokeColor=#6881B3;gradientColor=none;gradientDirection=north;strokeWidth=2;shape=mxgraph.networks.web_server;" vertex="1" parent="lfcw_otKHLyRdPGNzwIy-3">
          <mxGeometry x="70" y="240" width="65" height="65" as="geometry" />
        </mxCell>
        <mxCell id="lfcw_otKHLyRdPGNzwIy-43" style="edgeStyle=orthogonalEdgeStyle;rounded=0;orthogonalLoop=1;jettySize=auto;html=1;exitX=0.5;exitY=0.94;exitDx=0;exitDy=0;exitPerimeter=0;" edge="1" parent="lfcw_otKHLyRdPGNzwIy-3" source="lfcw_otKHLyRdPGNzwIy-21" target="lfcw_otKHLyRdPGNzwIy-24">
          <mxGeometry relative="1" as="geometry">
            <Array as="points">
              <mxPoint x="463" y="340" />
            </Array>
          </mxGeometry>
        </mxCell>
        <mxCell id="lfcw_otKHLyRdPGNzwIy-21" value="" style="fontColor=#0066CC;verticalAlign=top;verticalLabelPosition=bottom;labelPosition=center;align=center;html=1;outlineConnect=0;fillColor=#CCCCCC;strokeColor=#6881B3;gradientColor=none;gradientDirection=north;strokeWidth=2;shape=mxgraph.networks.web_server;" vertex="1" parent="lfcw_otKHLyRdPGNzwIy-3">
          <mxGeometry x="430" y="240" width="65" height="65" as="geometry" />
        </mxCell>
        <mxCell id="lfcw_otKHLyRdPGNzwIy-24" value="" style="sketch=0;outlineConnect=0;fontColor=#232F3E;gradientColor=none;fillColor=#C925D1;strokeColor=none;dashed=0;verticalLabelPosition=bottom;verticalAlign=top;align=center;html=1;fontSize=12;fontStyle=0;aspect=fixed;pointerEvents=1;shape=mxgraph.aws4.rds_multi_az;" vertex="1" parent="lfcw_otKHLyRdPGNzwIy-3">
          <mxGeometry x="248" y="310" width="167.49" height="124.54" as="geometry" />
        </mxCell>
        <mxCell id="lfcw_otKHLyRdPGNzwIy-27" value="Auto Scaling group" style="points=[[0,0],[0.25,0],[0.5,0],[0.75,0],[1,0],[1,0.25],[1,0.5],[1,0.75],[1,1],[0.75,1],[0.5,1],[0.25,1],[0,1],[0,0.75],[0,0.5],[0,0.25]];outlineConnect=0;gradientColor=none;html=1;whiteSpace=wrap;fontSize=12;fontStyle=0;container=1;pointerEvents=0;collapsible=0;recursiveResize=0;shape=mxgraph.aws4.groupCenter;grIcon=mxgraph.aws4.group_auto_scaling_group;grStroke=1;strokeColor=#D86613;fillColor=none;verticalAlign=top;align=center;fontColor=#D86613;dashed=1;spacingTop=25;strokeWidth=2;" vertex="1" parent="lfcw_otKHLyRdPGNzwIy-3">
          <mxGeometry x="70" y="150" width="530" height="70" as="geometry" />
        </mxCell>
        <mxCell id="lfcw_otKHLyRdPGNzwIy-35" style="edgeStyle=orthogonalEdgeStyle;rounded=0;orthogonalLoop=1;jettySize=auto;html=1;" edge="1" parent="lfcw_otKHLyRdPGNzwIy-3" source="lfcw_otKHLyRdPGNzwIy-29" target="lfcw_otKHLyRdPGNzwIy-19">
          <mxGeometry relative="1" as="geometry" />
        </mxCell>
        <mxCell id="lfcw_otKHLyRdPGNzwIy-37" style="edgeStyle=orthogonalEdgeStyle;rounded=0;orthogonalLoop=1;jettySize=auto;html=1;exitX=1;exitY=0.5;exitDx=0;exitDy=0;exitPerimeter=0;" edge="1" parent="lfcw_otKHLyRdPGNzwIy-3" source="lfcw_otKHLyRdPGNzwIy-29" target="lfcw_otKHLyRdPGNzwIy-22">
          <mxGeometry relative="1" as="geometry" />
        </mxCell>
        <mxCell id="lfcw_otKHLyRdPGNzwIy-38" style="edgeStyle=orthogonalEdgeStyle;rounded=0;orthogonalLoop=1;jettySize=auto;html=1;exitX=0.855;exitY=0.855;exitDx=0;exitDy=0;exitPerimeter=0;" edge="1" parent="lfcw_otKHLyRdPGNzwIy-3" source="lfcw_otKHLyRdPGNzwIy-29" target="lfcw_otKHLyRdPGNzwIy-21">
          <mxGeometry relative="1" as="geometry" />
        </mxCell>
        <mxCell id="lfcw_otKHLyRdPGNzwIy-39" style="edgeStyle=orthogonalEdgeStyle;rounded=0;orthogonalLoop=1;jettySize=auto;html=1;exitX=0.145;exitY=0.855;exitDx=0;exitDy=0;exitPerimeter=0;" edge="1" parent="lfcw_otKHLyRdPGNzwIy-3" source="lfcw_otKHLyRdPGNzwIy-29" target="lfcw_otKHLyRdPGNzwIy-20">
          <mxGeometry relative="1" as="geometry" />
        </mxCell>
        <mxCell id="lfcw_otKHLyRdPGNzwIy-29" value="" style="outlineConnect=0;dashed=0;verticalLabelPosition=bottom;verticalAlign=top;align=center;html=1;shape=mxgraph.aws3.application_load_balancer;fillColor=#F58534;gradientColor=none;" vertex="1" parent="lfcw_otKHLyRdPGNzwIy-3">
          <mxGeometry x="295.5" y="59" width="69" height="72" as="geometry" />
        </mxCell>
        <mxCell id="lfcw_otKHLyRdPGNzwIy-42" style="edgeStyle=orthogonalEdgeStyle;rounded=0;orthogonalLoop=1;jettySize=auto;html=1;exitX=0.5;exitY=0.94;exitDx=0;exitDy=0;exitPerimeter=0;" edge="1" parent="lfcw_otKHLyRdPGNzwIy-3" source="lfcw_otKHLyRdPGNzwIy-20" target="lfcw_otKHLyRdPGNzwIy-24">
          <mxGeometry relative="1" as="geometry">
            <Array as="points">
              <mxPoint x="203" y="340" />
            </Array>
          </mxGeometry>
        </mxCell>
        <mxCell id="lfcw_otKHLyRdPGNzwIy-44" style="edgeStyle=orthogonalEdgeStyle;rounded=0;orthogonalLoop=1;jettySize=auto;html=1;exitX=0.5;exitY=0.94;exitDx=0;exitDy=0;exitPerimeter=0;" edge="1" parent="lfcw_otKHLyRdPGNzwIy-3" source="lfcw_otKHLyRdPGNzwIy-22" target="lfcw_otKHLyRdPGNzwIy-24">
          <mxGeometry relative="1" as="geometry">
            <Array as="points">
              <mxPoint x="553" y="370" />
            </Array>
          </mxGeometry>
        </mxCell>
        <mxCell id="lfcw_otKHLyRdPGNzwIy-20" value="" style="fontColor=#0066CC;verticalAlign=top;verticalLabelPosition=bottom;labelPosition=center;align=center;html=1;outlineConnect=0;fillColor=#CCCCCC;strokeColor=#6881B3;gradientColor=none;gradientDirection=north;strokeWidth=2;shape=mxgraph.networks.web_server;" vertex="1" parent="lfcw_otKHLyRdPGNzwIy-3">
          <mxGeometry x="170" y="240" width="65" height="65" as="geometry" />
        </mxCell>
        <mxCell id="lfcw_otKHLyRdPGNzwIy-22" value="" style="fontColor=#0066CC;verticalAlign=top;verticalLabelPosition=bottom;labelPosition=center;align=center;html=1;outlineConnect=0;fillColor=#CCCCCC;strokeColor=#6881B3;gradientColor=none;gradientDirection=north;strokeWidth=2;shape=mxgraph.networks.web_server;" vertex="1" parent="lfcw_otKHLyRdPGNzwIy-3">
          <mxGeometry x="520" y="240" width="65" height="65" as="geometry" />
        </mxCell>
        <mxCell id="lfcw_otKHLyRdPGNzwIy-33" value="" style="edgeStyle=orthogonalEdgeStyle;rounded=0;orthogonalLoop=1;jettySize=auto;html=1;" edge="1" parent="lfcw_otKHLyRdPGNzwIy-2" source="lfcw_otKHLyRdPGNzwIy-11" target="lfcw_otKHLyRdPGNzwIy-29">
          <mxGeometry relative="1" as="geometry" />
        </mxCell>
        <mxCell id="lfcw_otKHLyRdPGNzwIy-11" value="" style="sketch=0;outlineConnect=0;fontColor=#232F3E;gradientColor=none;fillColor=#8C4FFF;strokeColor=none;dashed=0;verticalLabelPosition=bottom;verticalAlign=top;align=center;html=1;fontSize=12;fontStyle=0;aspect=fixed;pointerEvents=1;shape=mxgraph.aws4.internet_gateway;" vertex="1" parent="lfcw_otKHLyRdPGNzwIy-2">
          <mxGeometry x="311" y="30" width="58" height="58" as="geometry" />
        </mxCell>
        <mxCell id="lfcw_otKHLyRdPGNzwIy-23" value="" style="fontColor=#0066CC;verticalAlign=top;verticalLabelPosition=bottom;labelPosition=center;align=center;html=1;outlineConnect=0;fillColor=#CCCCCC;strokeColor=#6881B3;gradientColor=none;gradientDirection=north;strokeWidth=2;shape=mxgraph.networks.web_server;" vertex="1" parent="1">
          <mxGeometry x="40" y="800" width="50" height="45" as="geometry" />
        </mxCell>
        <mxCell id="lfcw_otKHLyRdPGNzwIy-25" value="" style="sketch=0;outlineConnect=0;fontColor=#232F3E;gradientColor=none;fillColor=#C925D1;strokeColor=none;dashed=0;verticalLabelPosition=bottom;verticalAlign=top;align=center;html=1;fontSize=12;fontStyle=0;aspect=fixed;pointerEvents=1;shape=mxgraph.aws4.rds_multi_az;" vertex="1" parent="1">
          <mxGeometry x="130" y="800" width="53.28" height="39.61" as="geometry" />
        </mxCell>
        <mxCell id="lfcw_otKHLyRdPGNzwIy-26" value="" style="sketch=0;outlineConnect=0;fontColor=#232F3E;gradientColor=none;fillColor=#8C4FFF;strokeColor=none;dashed=0;verticalLabelPosition=bottom;verticalAlign=top;align=center;html=1;fontSize=12;fontStyle=0;aspect=fixed;pointerEvents=1;shape=mxgraph.aws4.internet_gateway;" vertex="1" parent="1">
          <mxGeometry x="210" y="797" width="48" height="48" as="geometry" />
        </mxCell>
        <mxCell id="lfcw_otKHLyRdPGNzwIy-32" value="" style="edgeStyle=orthogonalEdgeStyle;rounded=0;orthogonalLoop=1;jettySize=auto;html=1;" edge="1" parent="1" source="lfcw_otKHLyRdPGNzwIy-30" target="lfcw_otKHLyRdPGNzwIy-11">
          <mxGeometry relative="1" as="geometry" />
        </mxCell>
        <mxCell id="lfcw_otKHLyRdPGNzwIy-30" value="" style="sketch=0;outlineConnect=0;fontColor=#232F3E;gradientColor=none;fillColor=#232F3D;strokeColor=none;dashed=0;verticalLabelPosition=bottom;verticalAlign=top;align=center;html=1;fontSize=12;fontStyle=0;aspect=fixed;pointerEvents=1;shape=mxgraph.aws4.users;" vertex="1" parent="1">
          <mxGeometry x="300" y="20" width="80" height="80" as="geometry" />
        </mxCell>
        <mxCell id="lfcw_otKHLyRdPGNzwIy-45" value="" style="outlineConnect=0;dashed=0;verticalLabelPosition=bottom;verticalAlign=top;align=center;html=1;shape=mxgraph.aws3.application_load_balancer;fillColor=#F58534;gradientColor=none;" vertex="1" parent="1">
          <mxGeometry x="290" y="790" width="49" height="49.61" as="geometry" />
        </mxCell>
      </root>
    </mxGraphModel>
  </diagram>
</mxfile>
